<mxfile host="app.diagrams.net" agent="Mozilla/5.0 (Windows NT 10.0; Win64; x64) AppleWebKit/537.36 (KHTML, like Gecko) Chrome/131.0.0.0 Safari/537.36" version="24.9.1" pages="3">
  <diagram name="use-case" id="nqR1uzk1Cjnra0QiIyGl">
    <mxGraphModel grid="1" page="1" gridSize="10" guides="1" tooltips="1" connect="1" arrows="1" fold="1" pageScale="1" pageWidth="850" pageHeight="1100" math="0" shadow="0">
      <root>
        <mxCell id="0" />
        <mxCell id="1" parent="0" />
        <mxCell id="rF-A_2q469PZiVExM9CE-1" value="persone&amp;nbsp;" style="shape=umlActor;verticalLabelPosition=bottom;verticalAlign=top;html=1;" vertex="1" parent="1">
          <mxGeometry x="40" y="350" width="30" height="60" as="geometry" />
        </mxCell>
        <mxCell id="rF-A_2q469PZiVExM9CE-3" value="impiegati" style="shape=umlActor;verticalLabelPosition=bottom;verticalAlign=top;html=1;" vertex="1" parent="1">
          <mxGeometry x="140" y="250" width="30" height="60" as="geometry" />
        </mxCell>
        <mxCell id="rF-A_2q469PZiVExM9CE-4" value="dirigenti" style="shape=umlActor;verticalLabelPosition=bottom;verticalAlign=top;html=1;" vertex="1" parent="1">
          <mxGeometry x="-30" y="240" width="30" height="60" as="geometry" />
        </mxCell>
        <mxCell id="rF-A_2q469PZiVExM9CE-6" value="" style="edgeStyle=none;html=1;endSize=12;endArrow=block;endFill=0;rounded=0;" edge="1" parent="1">
          <mxGeometry width="160" relative="1" as="geometry">
            <mxPoint x="-290" y="110" as="sourcePoint" />
            <mxPoint x="-130" y="110" as="targetPoint" />
          </mxGeometry>
        </mxCell>
        <mxCell id="rF-A_2q469PZiVExM9CE-7" value="" style="edgeStyle=none;html=1;endSize=12;endArrow=block;endFill=0;rounded=0;exitX=0;exitY=1;exitDx=0;exitDy=0;exitPerimeter=0;entryX=0.75;entryY=0.1;entryDx=0;entryDy=0;entryPerimeter=0;" edge="1" parent="1" source="rF-A_2q469PZiVExM9CE-3" target="rF-A_2q469PZiVExM9CE-1">
          <mxGeometry width="160" relative="1" as="geometry">
            <mxPoint x="180" y="430" as="sourcePoint" />
            <mxPoint x="60" y="350" as="targetPoint" />
          </mxGeometry>
        </mxCell>
        <mxCell id="rF-A_2q469PZiVExM9CE-9" value="" style="edgeStyle=none;html=1;endSize=12;endArrow=block;endFill=0;rounded=0;exitX=1;exitY=1;exitDx=0;exitDy=0;exitPerimeter=0;entryX=0.25;entryY=0.1;entryDx=0;entryDy=0;entryPerimeter=0;" edge="1" parent="1" source="rF-A_2q469PZiVExM9CE-4" target="rF-A_2q469PZiVExM9CE-1">
          <mxGeometry width="160" relative="1" as="geometry">
            <mxPoint x="45" y="440" as="sourcePoint" />
            <mxPoint x="90" y="350" as="targetPoint" />
          </mxGeometry>
        </mxCell>
        <mxCell id="rF-A_2q469PZiVExM9CE-12" value="assunzione" style="ellipse;whiteSpace=wrap;html=1;" vertex="1" parent="1">
          <mxGeometry x="330" y="340" width="130" height="60" as="geometry" />
        </mxCell>
        <mxCell id="rF-A_2q469PZiVExM9CE-14" value="full time" style="ellipse;whiteSpace=wrap;html=1;" vertex="1" parent="1">
          <mxGeometry x="425" y="440" width="90" height="50" as="geometry" />
        </mxCell>
        <mxCell id="rF-A_2q469PZiVExM9CE-15" value="" style="endArrow=none;html=1;endSize=12;startArrow=none;startSize=14;startFill=0;edgeStyle=orthogonalEdgeStyle;align=center;verticalAlign=bottom;endFill=0;rounded=0;" edge="1" parent="1">
          <mxGeometry y="3" relative="1" as="geometry">
            <mxPoint x="-300" y="179.5" as="sourcePoint" />
            <mxPoint x="-140" y="179.5" as="targetPoint" />
          </mxGeometry>
        </mxCell>
        <mxCell id="rF-A_2q469PZiVExM9CE-16" value="" style="endArrow=none;html=1;endSize=12;startArrow=none;startSize=14;startFill=0;align=center;verticalAlign=bottom;endFill=0;rounded=0;entryX=0;entryY=0.5;entryDx=0;entryDy=0;exitX=1;exitY=0.3333333333333333;exitDx=0;exitDy=0;exitPerimeter=0;" edge="1" parent="1" source="rF-A_2q469PZiVExM9CE-1" target="rF-A_2q469PZiVExM9CE-12">
          <mxGeometry y="3" relative="1" as="geometry">
            <mxPoint x="90" y="299" as="sourcePoint" />
            <mxPoint x="250" y="299" as="targetPoint" />
          </mxGeometry>
        </mxCell>
        <mxCell id="rF-A_2q469PZiVExM9CE-18" value="" style="edgeStyle=none;html=1;endSize=12;endArrow=block;endFill=0;rounded=0;entryX=0;entryY=1;entryDx=0;entryDy=0;exitX=0.5;exitY=0;exitDx=0;exitDy=0;" edge="1" parent="1" target="rF-A_2q469PZiVExM9CE-12">
          <mxGeometry width="160" relative="1" as="geometry">
            <mxPoint x="320" y="440" as="sourcePoint" />
            <mxPoint x="190" y="50" as="targetPoint" />
          </mxGeometry>
        </mxCell>
        <mxCell id="rF-A_2q469PZiVExM9CE-19" value="" style="edgeStyle=none;html=1;endSize=12;endArrow=block;endFill=0;rounded=0;entryX=1;entryY=1;entryDx=0;entryDy=0;exitX=0.5;exitY=0;exitDx=0;exitDy=0;" edge="1" parent="1" source="rF-A_2q469PZiVExM9CE-14" target="rF-A_2q469PZiVExM9CE-12">
          <mxGeometry width="160" relative="1" as="geometry">
            <mxPoint x="300" y="359" as="sourcePoint" />
            <mxPoint x="460" y="359" as="targetPoint" />
          </mxGeometry>
        </mxCell>
        <mxCell id="rF-A_2q469PZiVExM9CE-25" value="&amp;lt;&amp;lt;extend&amp;gt;&amp;gt;" style="html=1;verticalAlign=bottom;labelBackgroundColor=none;endArrow=open;endFill=0;dashed=1;rounded=0;" edge="1" parent="1">
          <mxGeometry width="160" relative="1" as="geometry">
            <mxPoint x="-300" y="250" as="sourcePoint" />
            <mxPoint x="-140" y="250" as="targetPoint" />
          </mxGeometry>
        </mxCell>
        <mxCell id="rF-A_2q469PZiVExM9CE-31" value="&amp;lt;&amp;lt;include&amp;gt;&amp;gt;" style="html=1;verticalAlign=bottom;labelBackgroundColor=none;endArrow=open;endFill=0;dashed=1;rounded=0;exitX=1;exitY=0.5;exitDx=0;exitDy=0;entryX=0;entryY=0;entryDx=0;entryDy=0;" edge="1" parent="1" source="rF-A_2q469PZiVExM9CE-55" target="rF-A_2q469PZiVExM9CE-32">
          <mxGeometry x="0.0462" y="21" width="160" relative="1" as="geometry">
            <mxPoint x="460" y="-30" as="sourcePoint" />
            <mxPoint x="550" y="120" as="targetPoint" />
            <mxPoint as="offset" />
          </mxGeometry>
        </mxCell>
        <mxCell id="rF-A_2q469PZiVExM9CE-32" value="paga base" style="ellipse;whiteSpace=wrap;html=1;" vertex="1" parent="1">
          <mxGeometry x="640" y="-40" width="120" height="50" as="geometry" />
        </mxCell>
        <mxCell id="rF-A_2q469PZiVExM9CE-36" value="incremento paga" style="ellipse;whiteSpace=wrap;html=1;" vertex="1" parent="1">
          <mxGeometry x="330" y="160" width="130" height="60" as="geometry" />
        </mxCell>
        <mxCell id="rF-A_2q469PZiVExM9CE-37" value="" style="endArrow=none;html=1;endSize=12;startArrow=none;startSize=14;startFill=0;align=center;verticalAlign=bottom;endFill=0;rounded=0;entryX=0;entryY=0.5;entryDx=0;entryDy=0;exitX=1;exitY=0.3333333333333333;exitDx=0;exitDy=0;exitPerimeter=0;" edge="1" parent="1" source="rF-A_2q469PZiVExM9CE-3" target="rF-A_2q469PZiVExM9CE-36">
          <mxGeometry y="3" relative="1" as="geometry">
            <mxPoint x="170" y="170" as="sourcePoint" />
            <mxPoint x="340" y="179.5" as="targetPoint" />
          </mxGeometry>
        </mxCell>
        <mxCell id="rF-A_2q469PZiVExM9CE-38" value="promozione livello" style="ellipse;whiteSpace=wrap;html=1;" vertex="1" parent="1">
          <mxGeometry x="330" y="240" width="130" height="60" as="geometry" />
        </mxCell>
        <mxCell id="rF-A_2q469PZiVExM9CE-40" value="" style="endArrow=none;html=1;endSize=12;startArrow=none;startSize=14;startFill=0;align=center;verticalAlign=bottom;endFill=0;rounded=0;entryX=0;entryY=0;entryDx=0;entryDy=0;exitX=1;exitY=0.3333333333333333;exitDx=0;exitDy=0;exitPerimeter=0;" edge="1" parent="1" source="rF-A_2q469PZiVExM9CE-3" target="rF-A_2q469PZiVExM9CE-38">
          <mxGeometry y="3" relative="1" as="geometry">
            <mxPoint x="180" y="190" as="sourcePoint" />
            <mxPoint x="340" y="210" as="targetPoint" />
          </mxGeometry>
        </mxCell>
        <mxCell id="rF-A_2q469PZiVExM9CE-41" value="" style="endArrow=none;html=1;endSize=12;startArrow=none;startSize=14;startFill=0;align=center;verticalAlign=bottom;endFill=0;rounded=0;entryX=0.04;entryY=0.711;entryDx=0;entryDy=0;exitX=0.5;exitY=0;exitDx=0;exitDy=0;exitPerimeter=0;entryPerimeter=0;" edge="1" parent="1" source="rF-A_2q469PZiVExM9CE-1" target="rF-A_2q469PZiVExM9CE-55">
          <mxGeometry y="3" relative="1" as="geometry">
            <mxPoint x="80" y="380" as="sourcePoint" />
            <mxPoint x="330" y="-30" as="targetPoint" />
          </mxGeometry>
        </mxCell>
        <mxCell id="rF-A_2q469PZiVExM9CE-42" value="&amp;lt;&amp;lt;extend&amp;gt;&amp;gt;" style="html=1;verticalAlign=bottom;labelBackgroundColor=none;endArrow=open;endFill=0;dashed=1;rounded=0;exitX=0.68;exitY=-0.033;exitDx=0;exitDy=0;exitPerimeter=0;entryX=0.24;entryY=0.933;entryDx=0;entryDy=0;entryPerimeter=0;" edge="1" parent="1" source="rF-A_2q469PZiVExM9CE-43" target="rF-A_2q469PZiVExM9CE-55">
          <mxGeometry width="160" relative="1" as="geometry">
            <mxPoint x="330" y="90" as="sourcePoint" />
            <mxPoint x="349" y="-10" as="targetPoint" />
          </mxGeometry>
        </mxCell>
        <mxCell id="rF-A_2q469PZiVExM9CE-43" value="quota in base al livello" style="ellipse;whiteSpace=wrap;html=1;" vertex="1" parent="1">
          <mxGeometry x="250" y="97.5" width="100" height="45" as="geometry" />
        </mxCell>
        <mxCell id="rF-A_2q469PZiVExM9CE-45" value="part-time" style="ellipse;whiteSpace=wrap;html=1;" vertex="1" parent="1">
          <mxGeometry x="275" y="440" width="90" height="50" as="geometry" />
        </mxCell>
        <mxCell id="rF-A_2q469PZiVExM9CE-46" value="paga straordinari" style="ellipse;whiteSpace=wrap;html=1;" vertex="1" parent="1">
          <mxGeometry x="400" y="90" width="100" height="45" as="geometry" />
        </mxCell>
        <mxCell id="rF-A_2q469PZiVExM9CE-48" value="indennità qualifica" style="ellipse;whiteSpace=wrap;html=1;" vertex="1" parent="1">
          <mxGeometry x="50" y="-45" width="100" height="45" as="geometry" />
        </mxCell>
        <mxCell id="rF-A_2q469PZiVExM9CE-54" value="&amp;lt;&amp;lt;extend&amp;gt;&amp;gt;" style="html=1;verticalAlign=bottom;labelBackgroundColor=none;endArrow=open;endFill=0;dashed=1;rounded=0;entryX=0;entryY=0.5;entryDx=0;entryDy=0;exitX=1;exitY=0.5;exitDx=0;exitDy=0;" edge="1" parent="1" source="rF-A_2q469PZiVExM9CE-48" target="rF-A_2q469PZiVExM9CE-55">
          <mxGeometry width="160" relative="1" as="geometry">
            <mxPoint x="328" y="106" as="sourcePoint" />
            <mxPoint x="320" y="-47.5" as="targetPoint" />
          </mxGeometry>
        </mxCell>
        <mxCell id="rF-A_2q469PZiVExM9CE-55" value="retribuzione" style="ellipse;whiteSpace=wrap;html=1;" vertex="1" parent="1">
          <mxGeometry x="330" y="-70" width="100" height="45" as="geometry" />
        </mxCell>
        <mxCell id="rF-A_2q469PZiVExM9CE-56" value="&amp;lt;&amp;lt;extend&amp;gt;&amp;gt;" style="html=1;verticalAlign=bottom;labelBackgroundColor=none;endArrow=open;endFill=0;dashed=1;rounded=0;exitX=0.5;exitY=0;exitDx=0;exitDy=0;entryX=0.69;entryY=0.933;entryDx=0;entryDy=0;entryPerimeter=0;" edge="1" parent="1" source="rF-A_2q469PZiVExM9CE-46" target="rF-A_2q469PZiVExM9CE-55">
          <mxGeometry width="160" relative="1" as="geometry">
            <mxPoint x="328" y="106" as="sourcePoint" />
            <mxPoint x="364" y="-18" as="targetPoint" />
          </mxGeometry>
        </mxCell>
        <mxCell id="rF-A_2q469PZiVExM9CE-57" value="condition: solo per impiegati full time" style="shape=note2;boundedLbl=1;whiteSpace=wrap;html=1;size=13;verticalAlign=top;align=center;" vertex="1" parent="1">
          <mxGeometry x="580" y="60" width="220" height="60" as="geometry" />
        </mxCell>
        <mxCell id="rF-A_2q469PZiVExM9CE-58" value="" style="endArrow=none;dashed=1;html=1;rounded=0;entryX=0;entryY=0.5;entryDx=0;entryDy=0;entryPerimeter=0;" edge="1" parent="1" source="rF-A_2q469PZiVExM9CE-59" target="rF-A_2q469PZiVExM9CE-57">
          <mxGeometry width="50" height="50" relative="1" as="geometry">
            <mxPoint x="440" y="60" as="sourcePoint" />
            <mxPoint x="560" y="50" as="targetPoint" />
          </mxGeometry>
        </mxCell>
        <mxCell id="rF-A_2q469PZiVExM9CE-60" value="" style="endArrow=none;dashed=1;html=1;rounded=0;entryX=0;entryY=0.5;entryDx=0;entryDy=0;entryPerimeter=0;" edge="1" parent="1" target="rF-A_2q469PZiVExM9CE-59">
          <mxGeometry width="50" height="50" relative="1" as="geometry">
            <mxPoint x="440" y="60" as="sourcePoint" />
            <mxPoint x="580" y="90" as="targetPoint" />
          </mxGeometry>
        </mxCell>
        <mxCell id="rF-A_2q469PZiVExM9CE-59" value="" style="ellipse;whiteSpace=wrap;html=1;" vertex="1" parent="1">
          <mxGeometry x="425" y="50" width="15" height="10" as="geometry" />
        </mxCell>
        <mxCell id="rF-A_2q469PZiVExM9CE-61" value="condition:solo per dirigenti" style="shape=note2;boundedLbl=1;whiteSpace=wrap;html=1;size=13;verticalAlign=top;align=center;" vertex="1" parent="1">
          <mxGeometry x="10" y="-190" width="180" height="60" as="geometry" />
        </mxCell>
        <mxCell id="rF-A_2q469PZiVExM9CE-62" value="" style="endArrow=none;dashed=1;html=1;rounded=0;exitX=0.583;exitY=0.983;exitDx=0;exitDy=0;exitPerimeter=0;" edge="1" parent="1" source="rF-A_2q469PZiVExM9CE-63">
          <mxGeometry width="50" height="50" relative="1" as="geometry">
            <mxPoint x="450" y="67" as="sourcePoint" />
            <mxPoint x="200" y="-30" as="targetPoint" />
          </mxGeometry>
        </mxCell>
        <mxCell id="rF-A_2q469PZiVExM9CE-69" value="" style="endArrow=none;dashed=1;html=1;rounded=0;exitX=0.583;exitY=0.983;exitDx=0;exitDy=0;exitPerimeter=0;" edge="1" parent="1" source="rF-A_2q469PZiVExM9CE-61" target="rF-A_2q469PZiVExM9CE-63">
          <mxGeometry width="50" height="50" relative="1" as="geometry">
            <mxPoint x="115" y="-131" as="sourcePoint" />
            <mxPoint x="200" y="-30" as="targetPoint" />
          </mxGeometry>
        </mxCell>
        <mxCell id="rF-A_2q469PZiVExM9CE-63" value="" style="ellipse;whiteSpace=wrap;html=1;" vertex="1" parent="1">
          <mxGeometry x="190" y="-35" width="15" height="10" as="geometry" />
        </mxCell>
        <mxCell id="rF-A_2q469PZiVExM9CE-70" value="condition: solo per impiegati&amp;nbsp;" style="shape=note2;boundedLbl=1;whiteSpace=wrap;html=1;size=7;verticalAlign=top;align=center;" vertex="1" parent="1">
          <mxGeometry x="60" y="37.5" width="140" height="42.5" as="geometry" />
        </mxCell>
        <mxCell id="rF-A_2q469PZiVExM9CE-72" value="" style="endArrow=none;dashed=1;html=1;rounded=0;" edge="1" parent="1" source="rF-A_2q469PZiVExM9CE-76">
          <mxGeometry width="50" height="50" relative="1" as="geometry">
            <mxPoint x="160" y="80" as="sourcePoint" />
            <mxPoint x="320" y="80" as="targetPoint" />
          </mxGeometry>
        </mxCell>
        <mxCell id="rF-A_2q469PZiVExM9CE-77" value="" style="endArrow=none;dashed=1;html=1;rounded=0;" edge="1" parent="1" target="rF-A_2q469PZiVExM9CE-76">
          <mxGeometry width="50" height="50" relative="1" as="geometry">
            <mxPoint x="160" y="80" as="sourcePoint" />
            <mxPoint x="320" y="80" as="targetPoint" />
          </mxGeometry>
        </mxCell>
        <mxCell id="rF-A_2q469PZiVExM9CE-76" value="" style="ellipse;whiteSpace=wrap;html=1;" vertex="1" parent="1">
          <mxGeometry x="315" y="70" width="10" height="10" as="geometry" />
        </mxCell>
        <mxCell id="rF-A_2q469PZiVExM9CE-78" value="Impresa" style="shape=umlActor;verticalLabelPosition=bottom;verticalAlign=top;html=1;" vertex="1" parent="1">
          <mxGeometry x="910" y="210" width="30" height="60" as="geometry" />
        </mxCell>
        <mxCell id="rF-A_2q469PZiVExM9CE-80" value="" style="endArrow=none;html=1;endSize=12;startArrow=none;startSize=14;startFill=0;edgeStyle=orthogonalEdgeStyle;align=center;verticalAlign=bottom;endFill=0;rounded=0;" edge="1" parent="1" source="rF-A_2q469PZiVExM9CE-55">
          <mxGeometry y="3" relative="1" as="geometry">
            <mxPoint x="750" y="240" as="sourcePoint" />
            <mxPoint x="910" y="240" as="targetPoint" />
            <Array as="points">
              <mxPoint x="380" y="-110" />
              <mxPoint x="911" y="-110" />
            </Array>
          </mxGeometry>
        </mxCell>
        <mxCell id="rF-A_2q469PZiVExM9CE-82" value="" style="endArrow=none;html=1;endSize=12;startArrow=none;startSize=14;startFill=0;align=center;verticalAlign=bottom;endFill=0;rounded=0;" edge="1" parent="1">
          <mxGeometry y="3" relative="1" as="geometry">
            <mxPoint x="460" y="189.5" as="sourcePoint" />
            <mxPoint x="910" y="240" as="targetPoint" />
          </mxGeometry>
        </mxCell>
        <mxCell id="rF-A_2q469PZiVExM9CE-83" value="" style="endArrow=none;html=1;endSize=12;startArrow=none;startSize=14;startFill=0;align=center;verticalAlign=bottom;endFill=0;rounded=0;" edge="1" parent="1" source="rF-A_2q469PZiVExM9CE-38" target="rF-A_2q469PZiVExM9CE-78">
          <mxGeometry y="3" relative="1" as="geometry">
            <mxPoint x="1050" y="154" as="sourcePoint" />
            <mxPoint x="1210" y="154" as="targetPoint" />
          </mxGeometry>
        </mxCell>
        <mxCell id="rF-A_2q469PZiVExM9CE-84" value="" style="endArrow=none;html=1;endSize=12;startArrow=none;startSize=14;startFill=0;align=center;verticalAlign=bottom;endFill=0;rounded=0;exitX=1;exitY=0.333;exitDx=0;exitDy=0;exitPerimeter=0;" edge="1" parent="1" source="rF-A_2q469PZiVExM9CE-12">
          <mxGeometry y="3" relative="1" as="geometry">
            <mxPoint x="1060" y="164" as="sourcePoint" />
            <mxPoint x="910" y="240" as="targetPoint" />
          </mxGeometry>
        </mxCell>
        <mxCell id="rF-A_2q469PZiVExM9CE-86" value="DB" style="shape=umlActor;verticalLabelPosition=bottom;verticalAlign=top;html=1;" vertex="1" parent="1">
          <mxGeometry x="860" y="350" width="30" height="60" as="geometry" />
        </mxCell>
        <mxCell id="rF-A_2q469PZiVExM9CE-87" value="crea lavoratore" style="ellipse;html=1;whiteSpace=wrap;" vertex="1" parent="1">
          <mxGeometry x="1100" y="260" width="90" height="50" as="geometry" />
        </mxCell>
        <mxCell id="rF-A_2q469PZiVExM9CE-88" value="" style="endArrow=none;html=1;endSize=12;startArrow=none;startSize=14;startFill=0;align=center;verticalAlign=bottom;endFill=0;rounded=0;" edge="1" parent="1" target="rF-A_2q469PZiVExM9CE-87">
          <mxGeometry y="3" relative="1" as="geometry">
            <mxPoint x="940" y="260" as="sourcePoint" />
            <mxPoint x="1200" y="144" as="targetPoint" />
          </mxGeometry>
        </mxCell>
        <mxCell id="rF-A_2q469PZiVExM9CE-89" value="" style="endArrow=none;html=1;endSize=12;startArrow=none;startSize=14;startFill=0;align=center;verticalAlign=bottom;endFill=0;rounded=0;entryX=0.578;entryY=1.06;entryDx=0;entryDy=0;entryPerimeter=0;" edge="1" parent="1" target="rF-A_2q469PZiVExM9CE-87">
          <mxGeometry y="3" relative="1" as="geometry">
            <mxPoint x="900" y="390" as="sourcePoint" />
            <mxPoint x="1210" y="154" as="targetPoint" />
          </mxGeometry>
        </mxCell>
        <mxCell id="rF-A_2q469PZiVExM9CE-90" value="&amp;lt;&amp;lt;extend&amp;gt;&amp;gt;" style="html=1;verticalAlign=bottom;labelBackgroundColor=none;endArrow=open;endFill=0;dashed=1;rounded=0;entryX=0.5;entryY=0;entryDx=0;entryDy=0;" edge="1" parent="1" target="rF-A_2q469PZiVExM9CE-87">
          <mxGeometry width="160" relative="1" as="geometry">
            <mxPoint x="1210" y="220" as="sourcePoint" />
            <mxPoint x="-130" y="260" as="targetPoint" />
          </mxGeometry>
        </mxCell>
        <mxCell id="rF-A_2q469PZiVExM9CE-91" value="crea copia&lt;div&gt;lavoratore&lt;/div&gt;" style="ellipse;html=1;whiteSpace=wrap;" vertex="1" parent="1">
          <mxGeometry x="1200" y="180" width="90" height="50" as="geometry" />
        </mxCell>
        <mxCell id="rF-A_2q469PZiVExM9CE-92" value="condition: impresa crea nuova posizione" style="shape=note2;boundedLbl=1;whiteSpace=wrap;html=1;size=13;verticalAlign=top;align=center;" vertex="1" parent="1">
          <mxGeometry x="1320" y="240" width="180" height="60" as="geometry" />
        </mxCell>
        <mxCell id="rF-A_2q469PZiVExM9CE-93" value="fornire ore straordinarie" style="ellipse;html=1;whiteSpace=wrap;" vertex="1" parent="1">
          <mxGeometry x="1270" y="420" width="100" height="50" as="geometry" />
        </mxCell>
        <mxCell id="rF-A_2q469PZiVExM9CE-94" value="aggiorna ore straordinarie" style="ellipse;html=1;whiteSpace=wrap;" vertex="1" parent="1">
          <mxGeometry x="1170" y="510" width="100" height="50" as="geometry" />
        </mxCell>
        <mxCell id="rF-A_2q469PZiVExM9CE-95" value="calcola stipendio" style="ellipse;html=1;whiteSpace=wrap;" vertex="1" parent="1">
          <mxGeometry x="1120" y="580" width="100" height="50" as="geometry" />
        </mxCell>
        <mxCell id="rF-A_2q469PZiVExM9CE-96" value="calcola totale stipendi" style="ellipse;html=1;whiteSpace=wrap;" vertex="1" parent="1">
          <mxGeometry x="1000" y="650" width="100" height="50" as="geometry" />
        </mxCell>
        <mxCell id="rF-A_2q469PZiVExM9CE-97" value="" style="endArrow=none;html=1;endSize=12;startArrow=none;startSize=14;startFill=0;align=center;verticalAlign=bottom;endFill=0;rounded=0;entryX=0.25;entryY=0;entryDx=0;entryDy=0;entryPerimeter=0;" edge="1" parent="1" target="rF-A_2q469PZiVExM9CE-93">
          <mxGeometry y="3" relative="1" as="geometry">
            <mxPoint x="940" y="260" as="sourcePoint" />
            <mxPoint x="1200" y="144" as="targetPoint" />
          </mxGeometry>
        </mxCell>
        <mxCell id="rF-A_2q469PZiVExM9CE-98" value="" style="endArrow=none;html=1;endSize=12;startArrow=none;startSize=14;startFill=0;align=center;verticalAlign=bottom;endFill=0;rounded=0;entryX=0.22;entryY=0.02;entryDx=0;entryDy=0;entryPerimeter=0;" edge="1" parent="1" target="rF-A_2q469PZiVExM9CE-94">
          <mxGeometry y="3" relative="1" as="geometry">
            <mxPoint x="940" y="260" as="sourcePoint" />
            <mxPoint x="1120" y="502" as="targetPoint" />
          </mxGeometry>
        </mxCell>
        <mxCell id="rF-A_2q469PZiVExM9CE-99" value="" style="endArrow=none;html=1;endSize=12;startArrow=none;startSize=14;startFill=0;align=center;verticalAlign=bottom;endFill=0;rounded=0;entryX=0;entryY=0;entryDx=0;entryDy=0;" edge="1" parent="1" target="rF-A_2q469PZiVExM9CE-95">
          <mxGeometry y="3" relative="1" as="geometry">
            <mxPoint x="940" y="270" as="sourcePoint" />
            <mxPoint x="1140" y="490" as="targetPoint" />
          </mxGeometry>
        </mxCell>
        <mxCell id="rF-A_2q469PZiVExM9CE-100" value="" style="endArrow=none;html=1;endSize=12;startArrow=none;startSize=14;startFill=0;align=center;verticalAlign=bottom;endFill=0;rounded=0;entryX=0;entryY=0;entryDx=0;entryDy=0;exitX=1;exitY=0.833;exitDx=0;exitDy=0;exitPerimeter=0;" edge="1" parent="1" source="rF-A_2q469PZiVExM9CE-78" target="rF-A_2q469PZiVExM9CE-96">
          <mxGeometry y="3" relative="1" as="geometry">
            <mxPoint x="940" y="270" as="sourcePoint" />
            <mxPoint x="1150" y="500" as="targetPoint" />
          </mxGeometry>
        </mxCell>
        <mxCell id="rF-A_2q469PZiVExM9CE-101" value="" style="endArrow=none;html=1;endSize=12;startArrow=none;startSize=14;startFill=0;align=center;verticalAlign=bottom;endFill=0;rounded=0;entryX=0;entryY=0.5;entryDx=0;entryDy=0;" edge="1" parent="1" target="rF-A_2q469PZiVExM9CE-93">
          <mxGeometry y="3" relative="1" as="geometry">
            <mxPoint x="900" y="390" as="sourcePoint" />
            <mxPoint x="1160" y="510" as="targetPoint" />
          </mxGeometry>
        </mxCell>
        <mxCell id="rF-A_2q469PZiVExM9CE-102" value="" style="endArrow=none;html=1;endSize=12;startArrow=none;startSize=14;startFill=0;align=center;verticalAlign=bottom;endFill=0;rounded=0;entryX=0;entryY=0;entryDx=0;entryDy=0;" edge="1" parent="1" target="rF-A_2q469PZiVExM9CE-94">
          <mxGeometry y="3" relative="1" as="geometry">
            <mxPoint x="900" y="390" as="sourcePoint" />
            <mxPoint x="1170" y="520" as="targetPoint" />
          </mxGeometry>
        </mxCell>
        <mxCell id="rF-A_2q469PZiVExM9CE-103" value="" style="endArrow=none;html=1;endSize=12;startArrow=none;startSize=14;startFill=0;align=center;verticalAlign=bottom;endFill=0;rounded=0;entryX=0;entryY=0;entryDx=0;entryDy=0;" edge="1" parent="1" target="rF-A_2q469PZiVExM9CE-95">
          <mxGeometry y="3" relative="1" as="geometry">
            <mxPoint x="900" y="390" as="sourcePoint" />
            <mxPoint x="1180" y="530" as="targetPoint" />
          </mxGeometry>
        </mxCell>
        <mxCell id="rF-A_2q469PZiVExM9CE-104" value="" style="endArrow=none;html=1;endSize=12;startArrow=none;startSize=14;startFill=0;align=center;verticalAlign=bottom;endFill=0;rounded=0;entryX=0.08;entryY=0.14;entryDx=0;entryDy=0;entryPerimeter=0;" edge="1" parent="1" target="rF-A_2q469PZiVExM9CE-96">
          <mxGeometry y="3" relative="1" as="geometry">
            <mxPoint x="900" y="390" as="sourcePoint" />
            <mxPoint x="1190" y="540" as="targetPoint" />
          </mxGeometry>
        </mxCell>
        <mxCell id="rF-A_2q469PZiVExM9CE-106" value="" style="endArrow=none;dashed=1;html=1;rounded=0;entryX=0;entryY=0.5;entryDx=0;entryDy=0;entryPerimeter=0;" edge="1" parent="1" target="rF-A_2q469PZiVExM9CE-92">
          <mxGeometry width="50" height="50" relative="1" as="geometry">
            <mxPoint x="1170" y="250" as="sourcePoint" />
            <mxPoint x="570" y="160" as="targetPoint" />
          </mxGeometry>
        </mxCell>
        <mxCell id="TSMIl-99RcA1xH_DBhaT-1" value="dovrei specificare chi fa straordinari anche qui?" style="text;html=1;align=center;verticalAlign=middle;resizable=0;points=[];autosize=1;strokeColor=none;fillColor=none;" vertex="1" parent="1">
          <mxGeometry x="215" y="518" width="270" height="30" as="geometry" />
        </mxCell>
      </root>
    </mxGraphModel>
  </diagram>
  <diagram id="KQlEQbsd1BZIEJibbPOf" name="class">
    <mxGraphModel grid="1" page="1" gridSize="10" guides="1" tooltips="1" connect="1" arrows="1" fold="1" pageScale="1" pageWidth="850" pageHeight="1100" math="0" shadow="0">
      <root>
        <mxCell id="0" />
        <mxCell id="1" parent="0" />
        <mxCell id="KG3XGf7A6lCJ62NqvaWx-1" value="persone" style="swimlane;fontStyle=1;align=center;verticalAlign=top;childLayout=stackLayout;horizontal=1;startSize=26;horizontalStack=0;resizeParent=1;resizeParentMax=0;resizeLast=0;collapsible=1;marginBottom=0;whiteSpace=wrap;html=1;" vertex="1" parent="1">
          <mxGeometry x="-80" y="310" width="160" height="78" as="geometry" />
        </mxCell>
        <mxCell id="KG3XGf7A6lCJ62NqvaWx-2" value="- nome: String&lt;div&gt;- cognome: String&lt;/div&gt;" style="text;strokeColor=none;fillColor=none;align=left;verticalAlign=top;spacingLeft=4;spacingRight=4;overflow=hidden;rotatable=0;points=[[0,0.5],[1,0.5]];portConstraint=eastwest;whiteSpace=wrap;html=1;" vertex="1" parent="KG3XGf7A6lCJ62NqvaWx-1">
          <mxGeometry y="26" width="160" height="44" as="geometry" />
        </mxCell>
        <mxCell id="KG3XGf7A6lCJ62NqvaWx-3" value="" style="line;strokeWidth=1;fillColor=none;align=left;verticalAlign=middle;spacingTop=-1;spacingLeft=3;spacingRight=3;rotatable=0;labelPosition=right;points=[];portConstraint=eastwest;strokeColor=inherit;" vertex="1" parent="KG3XGf7A6lCJ62NqvaWx-1">
          <mxGeometry y="70" width="160" height="8" as="geometry" />
        </mxCell>
        <mxCell id="KG3XGf7A6lCJ62NqvaWx-5" value="" style="edgeStyle=none;html=1;endSize=12;endArrow=block;endFill=0;rounded=0;entryX=1;entryY=-0.023;entryDx=0;entryDy=0;entryPerimeter=0;" edge="1" parent="1" target="KG3XGf7A6lCJ62NqvaWx-2">
          <mxGeometry width="160" relative="1" as="geometry">
            <mxPoint x="260" y="220" as="sourcePoint" />
            <mxPoint x="650" y="380" as="targetPoint" />
          </mxGeometry>
        </mxCell>
        <mxCell id="KG3XGf7A6lCJ62NqvaWx-6" value="impiegato" style="swimlane;fontStyle=1;align=center;verticalAlign=top;childLayout=stackLayout;horizontal=1;startSize=26;horizontalStack=0;resizeParent=1;resizeParentMax=0;resizeLast=0;collapsible=1;marginBottom=0;whiteSpace=wrap;html=1;" vertex="1" parent="1">
          <mxGeometry x="260" y="190" width="160" height="34" as="geometry" />
        </mxCell>
        <mxCell id="KG3XGf7A6lCJ62NqvaWx-8" value="" style="line;strokeWidth=1;fillColor=none;align=left;verticalAlign=middle;spacingTop=-1;spacingLeft=3;spacingRight=3;rotatable=0;labelPosition=right;points=[];portConstraint=eastwest;strokeColor=inherit;" vertex="1" parent="KG3XGf7A6lCJ62NqvaWx-6">
          <mxGeometry y="26" width="160" height="8" as="geometry" />
        </mxCell>
        <mxCell id="KG3XGf7A6lCJ62NqvaWx-9" value="dirigente" style="swimlane;fontStyle=1;align=center;verticalAlign=top;childLayout=stackLayout;horizontal=1;startSize=26;horizontalStack=0;resizeParent=1;resizeParentMax=0;resizeLast=0;collapsible=1;marginBottom=0;whiteSpace=wrap;html=1;" vertex="1" parent="1">
          <mxGeometry x="240" y="370" width="160" height="34" as="geometry" />
        </mxCell>
        <mxCell id="KG3XGf7A6lCJ62NqvaWx-11" value="" style="line;strokeWidth=1;fillColor=none;align=left;verticalAlign=middle;spacingTop=-1;spacingLeft=3;spacingRight=3;rotatable=0;labelPosition=right;points=[];portConstraint=eastwest;strokeColor=inherit;" vertex="1" parent="KG3XGf7A6lCJ62NqvaWx-9">
          <mxGeometry y="26" width="160" height="8" as="geometry" />
        </mxCell>
        <mxCell id="KG3XGf7A6lCJ62NqvaWx-17" value="impresa" style="swimlane;fontStyle=1;align=center;verticalAlign=top;childLayout=stackLayout;horizontal=1;startSize=26;horizontalStack=0;resizeParent=1;resizeParentMax=0;resizeLast=0;collapsible=1;marginBottom=0;whiteSpace=wrap;html=1;" vertex="1" parent="1">
          <mxGeometry x="1210" y="284" width="160" height="86" as="geometry" />
        </mxCell>
        <mxCell id="KG3XGf7A6lCJ62NqvaWx-18" value="+ field: type" style="text;strokeColor=none;fillColor=none;align=left;verticalAlign=top;spacingLeft=4;spacingRight=4;overflow=hidden;rotatable=0;points=[[0,0.5],[1,0.5]];portConstraint=eastwest;whiteSpace=wrap;html=1;" vertex="1" parent="KG3XGf7A6lCJ62NqvaWx-17">
          <mxGeometry y="26" width="160" height="26" as="geometry" />
        </mxCell>
        <mxCell id="KG3XGf7A6lCJ62NqvaWx-19" value="" style="line;strokeWidth=1;fillColor=none;align=left;verticalAlign=middle;spacingTop=-1;spacingLeft=3;spacingRight=3;rotatable=0;labelPosition=right;points=[];portConstraint=eastwest;strokeColor=inherit;" vertex="1" parent="KG3XGf7A6lCJ62NqvaWx-17">
          <mxGeometry y="52" width="160" height="8" as="geometry" />
        </mxCell>
        <mxCell id="KG3XGf7A6lCJ62NqvaWx-20" value="+ method(type): type" style="text;strokeColor=none;fillColor=none;align=left;verticalAlign=top;spacingLeft=4;spacingRight=4;overflow=hidden;rotatable=0;points=[[0,0.5],[1,0.5]];portConstraint=eastwest;whiteSpace=wrap;html=1;" vertex="1" parent="KG3XGf7A6lCJ62NqvaWx-17">
          <mxGeometry y="60" width="160" height="26" as="geometry" />
        </mxCell>
        <mxCell id="KG3XGf7A6lCJ62NqvaWx-21" value="" style="edgeStyle=none;html=1;endSize=12;endArrow=block;endFill=0;rounded=0;entryX=1;entryY=0.773;entryDx=0;entryDy=0;entryPerimeter=0;exitX=0;exitY=0.091;exitDx=0;exitDy=0;exitPerimeter=0;" edge="1" parent="1" target="KG3XGf7A6lCJ62NqvaWx-2">
          <mxGeometry width="160" relative="1" as="geometry">
            <mxPoint x="240" y="400.0039999999999" as="sourcePoint" />
            <mxPoint x="93" y="344" as="targetPoint" />
          </mxGeometry>
        </mxCell>
        <mxCell id="KG3XGf7A6lCJ62NqvaWx-23" value="contratto" style="swimlane;fontStyle=1;align=center;verticalAlign=top;childLayout=stackLayout;horizontal=1;startSize=26;horizontalStack=0;resizeParent=1;resizeParentMax=0;resizeLast=0;collapsible=1;marginBottom=0;whiteSpace=wrap;html=1;" vertex="1" parent="1">
          <mxGeometry x="690" y="160" width="160" height="34" as="geometry" />
        </mxCell>
        <mxCell id="KG3XGf7A6lCJ62NqvaWx-25" value="" style="line;strokeWidth=1;fillColor=none;align=left;verticalAlign=middle;spacingTop=-1;spacingLeft=3;spacingRight=3;rotatable=0;labelPosition=right;points=[];portConstraint=eastwest;strokeColor=inherit;" vertex="1" parent="KG3XGf7A6lCJ62NqvaWx-23">
          <mxGeometry y="26" width="160" height="8" as="geometry" />
        </mxCell>
        <mxCell id="KG3XGf7A6lCJ62NqvaWx-27" value="full-time" style="swimlane;fontStyle=1;align=center;verticalAlign=top;childLayout=stackLayout;horizontal=1;startSize=26;horizontalStack=0;resizeParent=1;resizeParentMax=0;resizeLast=0;collapsible=1;marginBottom=0;whiteSpace=wrap;html=1;" vertex="1" parent="1">
          <mxGeometry x="610" y="290" width="160" height="86" as="geometry" />
        </mxCell>
        <mxCell id="KG3XGf7A6lCJ62NqvaWx-28" value="+ field: type" style="text;strokeColor=none;fillColor=none;align=left;verticalAlign=top;spacingLeft=4;spacingRight=4;overflow=hidden;rotatable=0;points=[[0,0.5],[1,0.5]];portConstraint=eastwest;whiteSpace=wrap;html=1;" vertex="1" parent="KG3XGf7A6lCJ62NqvaWx-27">
          <mxGeometry y="26" width="160" height="26" as="geometry" />
        </mxCell>
        <mxCell id="KG3XGf7A6lCJ62NqvaWx-29" value="" style="line;strokeWidth=1;fillColor=none;align=left;verticalAlign=middle;spacingTop=-1;spacingLeft=3;spacingRight=3;rotatable=0;labelPosition=right;points=[];portConstraint=eastwest;strokeColor=inherit;" vertex="1" parent="KG3XGf7A6lCJ62NqvaWx-27">
          <mxGeometry y="52" width="160" height="8" as="geometry" />
        </mxCell>
        <mxCell id="KG3XGf7A6lCJ62NqvaWx-30" value="+ method(type): type" style="text;strokeColor=none;fillColor=none;align=left;verticalAlign=top;spacingLeft=4;spacingRight=4;overflow=hidden;rotatable=0;points=[[0,0.5],[1,0.5]];portConstraint=eastwest;whiteSpace=wrap;html=1;" vertex="1" parent="KG3XGf7A6lCJ62NqvaWx-27">
          <mxGeometry y="60" width="160" height="26" as="geometry" />
        </mxCell>
        <mxCell id="KG3XGf7A6lCJ62NqvaWx-31" value="part-time" style="swimlane;fontStyle=1;align=center;verticalAlign=top;childLayout=stackLayout;horizontal=1;startSize=26;horizontalStack=0;resizeParent=1;resizeParentMax=0;resizeLast=0;collapsible=1;marginBottom=0;whiteSpace=wrap;html=1;" vertex="1" parent="1">
          <mxGeometry x="850" y="290" width="160" height="86" as="geometry" />
        </mxCell>
        <mxCell id="KG3XGf7A6lCJ62NqvaWx-32" value="+ field: type" style="text;strokeColor=none;fillColor=none;align=left;verticalAlign=top;spacingLeft=4;spacingRight=4;overflow=hidden;rotatable=0;points=[[0,0.5],[1,0.5]];portConstraint=eastwest;whiteSpace=wrap;html=1;" vertex="1" parent="KG3XGf7A6lCJ62NqvaWx-31">
          <mxGeometry y="26" width="160" height="26" as="geometry" />
        </mxCell>
        <mxCell id="KG3XGf7A6lCJ62NqvaWx-33" value="" style="line;strokeWidth=1;fillColor=none;align=left;verticalAlign=middle;spacingTop=-1;spacingLeft=3;spacingRight=3;rotatable=0;labelPosition=right;points=[];portConstraint=eastwest;strokeColor=inherit;" vertex="1" parent="KG3XGf7A6lCJ62NqvaWx-31">
          <mxGeometry y="52" width="160" height="8" as="geometry" />
        </mxCell>
        <mxCell id="KG3XGf7A6lCJ62NqvaWx-34" value="+ method(type): type" style="text;strokeColor=none;fillColor=none;align=left;verticalAlign=top;spacingLeft=4;spacingRight=4;overflow=hidden;rotatable=0;points=[[0,0.5],[1,0.5]];portConstraint=eastwest;whiteSpace=wrap;html=1;" vertex="1" parent="KG3XGf7A6lCJ62NqvaWx-31">
          <mxGeometry y="60" width="160" height="26" as="geometry" />
        </mxCell>
        <mxCell id="KG3XGf7A6lCJ62NqvaWx-35" value="retribuzione" style="swimlane;fontStyle=1;align=center;verticalAlign=top;childLayout=stackLayout;horizontal=1;startSize=26;horizontalStack=0;resizeParent=1;resizeParentMax=0;resizeLast=0;collapsible=1;marginBottom=0;whiteSpace=wrap;html=1;" vertex="1" parent="1">
          <mxGeometry x="660" y="470" width="160" height="86" as="geometry" />
        </mxCell>
        <mxCell id="KG3XGf7A6lCJ62NqvaWx-36" value="+ field: type" style="text;strokeColor=none;fillColor=none;align=left;verticalAlign=top;spacingLeft=4;spacingRight=4;overflow=hidden;rotatable=0;points=[[0,0.5],[1,0.5]];portConstraint=eastwest;whiteSpace=wrap;html=1;" vertex="1" parent="KG3XGf7A6lCJ62NqvaWx-35">
          <mxGeometry y="26" width="160" height="26" as="geometry" />
        </mxCell>
        <mxCell id="KG3XGf7A6lCJ62NqvaWx-37" value="" style="line;strokeWidth=1;fillColor=none;align=left;verticalAlign=middle;spacingTop=-1;spacingLeft=3;spacingRight=3;rotatable=0;labelPosition=right;points=[];portConstraint=eastwest;strokeColor=inherit;" vertex="1" parent="KG3XGf7A6lCJ62NqvaWx-35">
          <mxGeometry y="52" width="160" height="8" as="geometry" />
        </mxCell>
        <mxCell id="KG3XGf7A6lCJ62NqvaWx-38" value="+ method(type): type" style="text;strokeColor=none;fillColor=none;align=left;verticalAlign=top;spacingLeft=4;spacingRight=4;overflow=hidden;rotatable=0;points=[[0,0.5],[1,0.5]];portConstraint=eastwest;whiteSpace=wrap;html=1;" vertex="1" parent="KG3XGf7A6lCJ62NqvaWx-35">
          <mxGeometry y="60" width="160" height="26" as="geometry" />
        </mxCell>
        <mxCell id="KG3XGf7A6lCJ62NqvaWx-39" value="promozione" style="swimlane;fontStyle=1;align=center;verticalAlign=top;childLayout=stackLayout;horizontal=1;startSize=26;horizontalStack=0;resizeParent=1;resizeParentMax=0;resizeLast=0;collapsible=1;marginBottom=0;whiteSpace=wrap;html=1;" vertex="1" parent="1">
          <mxGeometry x="680" y="650" width="160" height="86" as="geometry" />
        </mxCell>
        <mxCell id="KG3XGf7A6lCJ62NqvaWx-40" value="+ field: type" style="text;strokeColor=none;fillColor=none;align=left;verticalAlign=top;spacingLeft=4;spacingRight=4;overflow=hidden;rotatable=0;points=[[0,0.5],[1,0.5]];portConstraint=eastwest;whiteSpace=wrap;html=1;" vertex="1" parent="KG3XGf7A6lCJ62NqvaWx-39">
          <mxGeometry y="26" width="160" height="26" as="geometry" />
        </mxCell>
        <mxCell id="KG3XGf7A6lCJ62NqvaWx-41" value="" style="line;strokeWidth=1;fillColor=none;align=left;verticalAlign=middle;spacingTop=-1;spacingLeft=3;spacingRight=3;rotatable=0;labelPosition=right;points=[];portConstraint=eastwest;strokeColor=inherit;" vertex="1" parent="KG3XGf7A6lCJ62NqvaWx-39">
          <mxGeometry y="52" width="160" height="8" as="geometry" />
        </mxCell>
        <mxCell id="KG3XGf7A6lCJ62NqvaWx-42" value="+ method(type): type" style="text;strokeColor=none;fillColor=none;align=left;verticalAlign=top;spacingLeft=4;spacingRight=4;overflow=hidden;rotatable=0;points=[[0,0.5],[1,0.5]];portConstraint=eastwest;whiteSpace=wrap;html=1;" vertex="1" parent="KG3XGf7A6lCJ62NqvaWx-39">
          <mxGeometry y="60" width="160" height="26" as="geometry" />
        </mxCell>
        <mxCell id="KG3XGf7A6lCJ62NqvaWx-43" value="Posizione" style="swimlane;fontStyle=1;align=center;verticalAlign=top;childLayout=stackLayout;horizontal=1;startSize=26;horizontalStack=0;resizeParent=1;resizeParentMax=0;resizeLast=0;collapsible=1;marginBottom=0;whiteSpace=wrap;html=1;" vertex="1" parent="1">
          <mxGeometry x="1210" y="464" width="160" height="86" as="geometry" />
        </mxCell>
        <mxCell id="KG3XGf7A6lCJ62NqvaWx-44" value="+ field: type" style="text;strokeColor=none;fillColor=none;align=left;verticalAlign=top;spacingLeft=4;spacingRight=4;overflow=hidden;rotatable=0;points=[[0,0.5],[1,0.5]];portConstraint=eastwest;whiteSpace=wrap;html=1;" vertex="1" parent="KG3XGf7A6lCJ62NqvaWx-43">
          <mxGeometry y="26" width="160" height="26" as="geometry" />
        </mxCell>
        <mxCell id="KG3XGf7A6lCJ62NqvaWx-45" value="" style="line;strokeWidth=1;fillColor=none;align=left;verticalAlign=middle;spacingTop=-1;spacingLeft=3;spacingRight=3;rotatable=0;labelPosition=right;points=[];portConstraint=eastwest;strokeColor=inherit;" vertex="1" parent="KG3XGf7A6lCJ62NqvaWx-43">
          <mxGeometry y="52" width="160" height="8" as="geometry" />
        </mxCell>
        <mxCell id="KG3XGf7A6lCJ62NqvaWx-46" value="+ method(type): type" style="text;strokeColor=none;fillColor=none;align=left;verticalAlign=top;spacingLeft=4;spacingRight=4;overflow=hidden;rotatable=0;points=[[0,0.5],[1,0.5]];portConstraint=eastwest;whiteSpace=wrap;html=1;" vertex="1" parent="KG3XGf7A6lCJ62NqvaWx-43">
          <mxGeometry y="60" width="160" height="26" as="geometry" />
        </mxCell>
        <mxCell id="KG3XGf7A6lCJ62NqvaWx-47" value="crea copia" style="text;html=1;align=center;verticalAlign=middle;resizable=0;points=[];autosize=1;strokeColor=none;fillColor=none;" vertex="1" parent="1">
          <mxGeometry x="1240" y="590" width="80" height="30" as="geometry" />
        </mxCell>
        <mxCell id="KG3XGf7A6lCJ62NqvaWx-48" value="straordinari" style="swimlane;fontStyle=1;align=center;verticalAlign=top;childLayout=stackLayout;horizontal=1;startSize=26;horizontalStack=0;resizeParent=1;resizeParentMax=0;resizeLast=0;collapsible=1;marginBottom=0;whiteSpace=wrap;html=1;" vertex="1" parent="1">
          <mxGeometry x="690" y="20" width="160" height="60" as="geometry" />
        </mxCell>
        <mxCell id="KG3XGf7A6lCJ62NqvaWx-49" value="- numOre: int" style="text;strokeColor=none;fillColor=none;align=left;verticalAlign=top;spacingLeft=4;spacingRight=4;overflow=hidden;rotatable=0;points=[[0,0.5],[1,0.5]];portConstraint=eastwest;whiteSpace=wrap;html=1;" vertex="1" parent="KG3XGf7A6lCJ62NqvaWx-48">
          <mxGeometry y="26" width="160" height="26" as="geometry" />
        </mxCell>
        <mxCell id="KG3XGf7A6lCJ62NqvaWx-50" value="" style="line;strokeWidth=1;fillColor=none;align=left;verticalAlign=middle;spacingTop=-1;spacingLeft=3;spacingRight=3;rotatable=0;labelPosition=right;points=[];portConstraint=eastwest;strokeColor=inherit;" vertex="1" parent="KG3XGf7A6lCJ62NqvaWx-48">
          <mxGeometry y="52" width="160" height="8" as="geometry" />
        </mxCell>
        <mxCell id="KG3XGf7A6lCJ62NqvaWx-53" value="" style="endArrow=none;startArrow=diamondThin;endFill=0;startFill=0;html=1;verticalAlign=bottom;labelBackgroundColor=none;strokeWidth=1;startSize=8;endSize=8;rounded=0;" edge="1" parent="1">
          <mxGeometry width="160" relative="1" as="geometry">
            <mxPoint x="160" y="30" as="sourcePoint" />
            <mxPoint x="320" y="30" as="targetPoint" />
          </mxGeometry>
        </mxCell>
        <mxCell id="KG3XGf7A6lCJ62NqvaWx-54" value="" style="endArrow=none;startArrow=diamondThin;endFill=0;startFill=1;html=1;verticalAlign=bottom;labelBackgroundColor=none;strokeWidth=1;startSize=8;endSize=8;rounded=0;" edge="1" parent="1">
          <mxGeometry width="160" relative="1" as="geometry">
            <mxPoint x="160" y="60" as="sourcePoint" />
            <mxPoint x="320" y="60" as="targetPoint" />
          </mxGeometry>
        </mxCell>
        <mxCell id="KG3XGf7A6lCJ62NqvaWx-56" value="" style="endArrow=none;html=1;endSize=12;startArrow=none;startSize=14;startFill=0;edgeStyle=orthogonalEdgeStyle;align=center;verticalAlign=bottom;endFill=0;rounded=0;" edge="1" parent="1">
          <mxGeometry y="3" relative="1" as="geometry">
            <mxPoint x="170" y="100" as="sourcePoint" />
            <mxPoint x="330" y="100" as="targetPoint" />
          </mxGeometry>
        </mxCell>
        <mxCell id="KG3XGf7A6lCJ62NqvaWx-57" value="" style="endArrow=none;html=1;endSize=12;startArrow=none;startSize=14;startFill=0;edgeStyle=orthogonalEdgeStyle;align=center;verticalAlign=bottom;endFill=0;rounded=0;entryX=0.002;entryY=1.077;entryDx=0;entryDy=0;entryPerimeter=0;exitX=0.75;exitY=0;exitDx=0;exitDy=0;" edge="1" parent="1" source="KG3XGf7A6lCJ62NqvaWx-6" target="KG3XGf7A6lCJ62NqvaWx-49">
          <mxGeometry y="3" relative="1" as="geometry">
            <mxPoint x="420" y="190" as="sourcePoint" />
            <mxPoint x="340" y="110" as="targetPoint" />
            <Array as="points">
              <mxPoint x="380" y="74" />
            </Array>
          </mxGeometry>
        </mxCell>
        <mxCell id="KG3XGf7A6lCJ62NqvaWx-58" value="" style="endArrow=none;html=1;endSize=12;startArrow=none;startSize=14;startFill=0;edgeStyle=orthogonalEdgeStyle;align=center;verticalAlign=bottom;endFill=0;rounded=0;entryX=0;entryY=0.5;entryDx=0;entryDy=0;" edge="1" parent="1">
          <mxGeometry y="3" relative="1" as="geometry">
            <mxPoint x="420" y="190" as="sourcePoint" />
            <mxPoint x="690" y="188.9999999999999" as="targetPoint" />
            <Array as="points">
              <mxPoint x="420" y="190" />
              <mxPoint x="550" y="190" />
            </Array>
          </mxGeometry>
        </mxCell>
        <mxCell id="KG3XGf7A6lCJ62NqvaWx-61" value="" style="edgeStyle=none;html=1;endSize=12;endArrow=block;endFill=0;rounded=0;exitX=0.5;exitY=0;exitDx=0;exitDy=0;entryX=0.25;entryY=1;entryDx=0;entryDy=0;" edge="1" parent="1" source="KG3XGf7A6lCJ62NqvaWx-27" target="KG3XGf7A6lCJ62NqvaWx-23">
          <mxGeometry width="160" relative="1" as="geometry">
            <mxPoint x="280" y="240" as="sourcePoint" />
            <mxPoint x="730" y="200" as="targetPoint" />
          </mxGeometry>
        </mxCell>
        <mxCell id="KG3XGf7A6lCJ62NqvaWx-62" value="" style="edgeStyle=none;html=1;endSize=12;endArrow=block;endFill=0;rounded=0;exitX=0.25;exitY=0;exitDx=0;exitDy=0;entryX=0.75;entryY=1;entryDx=0;entryDy=0;" edge="1" parent="1" source="KG3XGf7A6lCJ62NqvaWx-31" target="KG3XGf7A6lCJ62NqvaWx-23">
          <mxGeometry width="160" relative="1" as="geometry">
            <mxPoint x="700" y="300" as="sourcePoint" />
            <mxPoint x="830" y="240" as="targetPoint" />
          </mxGeometry>
        </mxCell>
        <mxCell id="KG3XGf7A6lCJ62NqvaWx-63" value="" style="endArrow=none;startArrow=diamondThin;endFill=0;startFill=1;html=1;verticalAlign=bottom;labelBackgroundColor=none;strokeWidth=1;startSize=8;endSize=8;rounded=0;entryX=0.5;entryY=1;entryDx=0;entryDy=0;exitX=0.5;exitY=0;exitDx=0;exitDy=0;" edge="1" parent="1" source="KG3XGf7A6lCJ62NqvaWx-23" target="KG3XGf7A6lCJ62NqvaWx-48">
          <mxGeometry width="160" relative="1" as="geometry">
            <mxPoint x="170" y="70" as="sourcePoint" />
            <mxPoint x="769.6799999999998" y="106" as="targetPoint" />
          </mxGeometry>
        </mxCell>
        <mxCell id="KG3XGf7A6lCJ62NqvaWx-64" value="" style="endArrow=none;html=1;endSize=12;startArrow=none;startSize=14;startFill=0;edgeStyle=orthogonalEdgeStyle;align=center;verticalAlign=bottom;endFill=0;rounded=0;entryX=0;entryY=0.5;entryDx=0;entryDy=0;" edge="1" parent="1" target="KG3XGf7A6lCJ62NqvaWx-18">
          <mxGeometry y="3" relative="1" as="geometry">
            <mxPoint x="850" y="192.5" as="sourcePoint" />
            <mxPoint x="1010" y="192.5" as="targetPoint" />
            <Array as="points">
              <mxPoint x="850" y="190" />
              <mxPoint x="1170" y="190" />
              <mxPoint x="1170" y="323" />
            </Array>
          </mxGeometry>
        </mxCell>
        <mxCell id="0h7QuMRQGgczaCr0Tp1Q-2" value="" style="endArrow=none;html=1;endSize=12;startArrow=none;startSize=14;startFill=0;edgeStyle=orthogonalEdgeStyle;align=center;verticalAlign=bottom;endFill=0;rounded=0;entryX=0;entryY=0.25;entryDx=0;entryDy=0;exitX=0.75;exitY=1;exitDx=0;exitDy=0;" edge="1" parent="1" source="KG3XGf7A6lCJ62NqvaWx-9" target="KG3XGf7A6lCJ62NqvaWx-35">
          <mxGeometry y="3" relative="1" as="geometry">
            <mxPoint x="400" y="420" as="sourcePoint" />
            <mxPoint x="560" y="420" as="targetPoint" />
            <Array as="points">
              <mxPoint x="360" y="491" />
            </Array>
          </mxGeometry>
        </mxCell>
        <mxCell id="0h7QuMRQGgczaCr0Tp1Q-3" value="" style="endArrow=none;html=1;endSize=12;startArrow=none;startSize=14;startFill=0;edgeStyle=orthogonalEdgeStyle;align=center;verticalAlign=bottom;endFill=0;rounded=0;entryX=0;entryY=0;entryDx=0;entryDy=0;exitX=0.871;exitY=0.831;exitDx=0;exitDy=0;exitPerimeter=0;" edge="1" parent="1" source="KG3XGf7A6lCJ62NqvaWx-8" target="KG3XGf7A6lCJ62NqvaWx-35">
          <mxGeometry y="3" relative="1" as="geometry">
            <mxPoint x="400" y="230" as="sourcePoint" />
            <mxPoint x="350" y="120" as="targetPoint" />
            <Array as="points">
              <mxPoint x="390" y="223" />
              <mxPoint x="390" y="261" />
              <mxPoint x="560" y="261" />
              <mxPoint x="560" y="470" />
            </Array>
          </mxGeometry>
        </mxCell>
        <mxCell id="0h7QuMRQGgczaCr0Tp1Q-4" value="" style="endArrow=none;html=1;endSize=12;startArrow=none;startSize=14;startFill=0;edgeStyle=orthogonalEdgeStyle;align=center;verticalAlign=bottom;endFill=0;rounded=0;entryX=0;entryY=0.5;entryDx=0;entryDy=0;exitX=0.75;exitY=1;exitDx=0;exitDy=0;" edge="1" parent="1" source="KG3XGf7A6lCJ62NqvaWx-6" target="KG3XGf7A6lCJ62NqvaWx-40">
          <mxGeometry y="3" relative="1" as="geometry">
            <mxPoint x="200" y="130" as="sourcePoint" />
            <mxPoint x="360" y="130" as="targetPoint" />
            <Array as="points">
              <mxPoint x="330" y="224" />
              <mxPoint x="330" y="300" />
              <mxPoint x="420" y="300" />
              <mxPoint x="420" y="689" />
            </Array>
          </mxGeometry>
        </mxCell>
        <mxCell id="0h7QuMRQGgczaCr0Tp1Q-5" value="" style="endArrow=none;html=1;endSize=12;startArrow=none;startSize=14;startFill=0;edgeStyle=orthogonalEdgeStyle;align=center;verticalAlign=bottom;endFill=0;rounded=0;exitX=1.016;exitY=0.916;exitDx=0;exitDy=0;exitPerimeter=0;" edge="1" parent="1" source="KG3XGf7A6lCJ62NqvaWx-40">
          <mxGeometry y="3" relative="1" as="geometry">
            <mxPoint x="210" y="140" as="sourcePoint" />
            <mxPoint x="1210" y="360" as="targetPoint" />
            <Array as="points">
              <mxPoint x="1100" y="700" />
              <mxPoint x="1100" y="390" />
              <mxPoint x="1210" y="390" />
            </Array>
          </mxGeometry>
        </mxCell>
        <mxCell id="58RjTEyZ_wl-csbwNSAx-1" value="" style="endArrow=none;html=1;endSize=12;startArrow=none;startSize=14;startFill=0;edgeStyle=orthogonalEdgeStyle;align=center;verticalAlign=bottom;endFill=0;rounded=0;entryX=-0.022;entryY=0.108;entryDx=0;entryDy=0;entryPerimeter=0;exitX=1.015;exitY=-0.138;exitDx=0;exitDy=0;exitPerimeter=0;" edge="1" parent="1" source="KG3XGf7A6lCJ62NqvaWx-36" target="KG3XGf7A6lCJ62NqvaWx-20">
          <mxGeometry y="3" relative="1" as="geometry">
            <mxPoint x="1040" y="380" as="sourcePoint" />
            <mxPoint x="1200" y="380" as="targetPoint" />
            <Array as="points">
              <mxPoint x="1050" y="492" />
              <mxPoint x="1050" y="347" />
            </Array>
          </mxGeometry>
        </mxCell>
        <mxCell id="58RjTEyZ_wl-csbwNSAx-3" value="{solo impiegati full-time}" style="text;html=1;align=center;verticalAlign=middle;resizable=0;points=[];autosize=1;strokeColor=none;fillColor=none;" vertex="1" parent="1">
          <mxGeometry x="370" y="48" width="150" height="30" as="geometry" />
        </mxCell>
        <mxCell id="58RjTEyZ_wl-csbwNSAx-4" value="- firma" style="text;html=1;align=center;verticalAlign=middle;resizable=0;points=[];autosize=1;strokeColor=none;fillColor=none;" vertex="1" parent="1">
          <mxGeometry x="620" y="160" width="60" height="30" as="geometry" />
        </mxCell>
        <mxCell id="58RjTEyZ_wl-csbwNSAx-5" value="- stipula" style="text;html=1;align=center;verticalAlign=middle;resizable=0;points=[];autosize=1;strokeColor=none;fillColor=none;" vertex="1" parent="1">
          <mxGeometry x="895" y="160" width="70" height="30" as="geometry" />
        </mxCell>
        <mxCell id="58RjTEyZ_wl-csbwNSAx-6" value="" style="endArrow=none;startArrow=diamondThin;endFill=0;startFill=1;html=1;verticalAlign=bottom;labelBackgroundColor=none;strokeWidth=1;startSize=8;endSize=8;rounded=0;entryX=1.013;entryY=0.894;entryDx=0;entryDy=0;entryPerimeter=0;exitX=0.5;exitY=0;exitDx=0;exitDy=0;" edge="1" parent="1" source="KG3XGf7A6lCJ62NqvaWx-17" target="KG3XGf7A6lCJ62NqvaWx-49">
          <mxGeometry width="160" relative="1" as="geometry">
            <mxPoint x="1090" y="120" as="sourcePoint" />
            <mxPoint x="1250" y="120" as="targetPoint" />
            <Array as="points">
              <mxPoint x="1290" y="69" />
            </Array>
          </mxGeometry>
        </mxCell>
        <mxCell id="58RjTEyZ_wl-csbwNSAx-8" value="" style="endArrow=none;startArrow=diamondThin;endFill=0;startFill=1;html=1;verticalAlign=bottom;labelBackgroundColor=none;strokeWidth=1;startSize=8;endSize=8;rounded=0;entryX=0.5;entryY=0;entryDx=0;entryDy=0;exitX=0.474;exitY=1.052;exitDx=0;exitDy=0;exitPerimeter=0;" edge="1" parent="1" source="KG3XGf7A6lCJ62NqvaWx-20" target="KG3XGf7A6lCJ62NqvaWx-43">
          <mxGeometry width="160" relative="1" as="geometry">
            <mxPoint x="1260" y="390" as="sourcePoint" />
            <mxPoint x="1580" y="404" as="targetPoint" />
          </mxGeometry>
        </mxCell>
        <mxCell id="58RjTEyZ_wl-csbwNSAx-9" value="- crea" style="text;html=1;align=center;verticalAlign=middle;resizable=0;points=[];autosize=1;strokeColor=none;fillColor=none;" vertex="1" parent="1">
          <mxGeometry x="1290" y="428" width="50" height="30" as="geometry" />
        </mxCell>
        <mxCell id="58RjTEyZ_wl-csbwNSAx-10" value="1..*" style="text;html=1;align=center;verticalAlign=middle;resizable=0;points=[];autosize=1;strokeColor=none;fillColor=none;" vertex="1" parent="1">
          <mxGeometry x="270" y="398" width="40" height="30" as="geometry" />
        </mxCell>
        <mxCell id="58RjTEyZ_wl-csbwNSAx-11" value="1" style="text;html=1;align=center;verticalAlign=middle;resizable=0;points=[];autosize=1;strokeColor=none;fillColor=none;" vertex="1" parent="1">
          <mxGeometry x="620" y="498" width="30" height="30" as="geometry" />
        </mxCell>
        <mxCell id="58RjTEyZ_wl-csbwNSAx-12" value="1" style="text;html=1;align=center;verticalAlign=middle;resizable=0;points=[];autosize=1;strokeColor=none;fillColor=none;" vertex="1" parent="1">
          <mxGeometry x="635" y="438" width="30" height="30" as="geometry" />
        </mxCell>
        <mxCell id="58RjTEyZ_wl-csbwNSAx-13" value="1..*" style="text;html=1;align=center;verticalAlign=middle;resizable=0;points=[];autosize=1;strokeColor=none;fillColor=none;" vertex="1" parent="1">
          <mxGeometry x="400" y="228" width="40" height="30" as="geometry" />
        </mxCell>
        <mxCell id="58RjTEyZ_wl-csbwNSAx-14" value="- richiede" style="text;html=1;align=center;verticalAlign=middle;resizable=0;points=[];autosize=1;strokeColor=none;fillColor=none;" vertex="1" parent="1">
          <mxGeometry x="860" y="40" width="70" height="30" as="geometry" />
        </mxCell>
        <mxCell id="58RjTEyZ_wl-csbwNSAx-15" value="- svolge" style="text;html=1;align=center;verticalAlign=middle;resizable=0;points=[];autosize=1;strokeColor=none;fillColor=none;" vertex="1" parent="1">
          <mxGeometry x="625" y="48" width="70" height="30" as="geometry" />
        </mxCell>
        <mxCell id="58RjTEyZ_wl-csbwNSAx-16" value="1..*" style="text;html=1;align=center;verticalAlign=middle;resizable=0;points=[];autosize=1;strokeColor=none;fillColor=none;" vertex="1" parent="1">
          <mxGeometry x="630" y="78" width="40" height="30" as="geometry" />
        </mxCell>
        <mxCell id="58RjTEyZ_wl-csbwNSAx-17" value="1..*" style="text;html=1;align=center;verticalAlign=middle;resizable=0;points=[];autosize=1;strokeColor=none;fillColor=none;" vertex="1" parent="1">
          <mxGeometry x="330" y="158" width="40" height="30" as="geometry" />
        </mxCell>
        <mxCell id="58RjTEyZ_wl-csbwNSAx-18" value="1" style="text;html=1;align=center;verticalAlign=middle;resizable=0;points=[];autosize=1;strokeColor=none;fillColor=none;" vertex="1" parent="1">
          <mxGeometry x="1135" y="278" width="30" height="30" as="geometry" />
        </mxCell>
        <mxCell id="58RjTEyZ_wl-csbwNSAx-19" value="1..*" style="text;html=1;align=center;verticalAlign=middle;resizable=0;points=[];autosize=1;strokeColor=none;fillColor=none;" vertex="1" parent="1">
          <mxGeometry x="900" y="188" width="40" height="30" as="geometry" />
        </mxCell>
        <mxCell id="58RjTEyZ_wl-csbwNSAx-20" value="1" style="text;html=1;align=center;verticalAlign=middle;resizable=0;points=[];autosize=1;strokeColor=none;fillColor=none;" vertex="1" parent="1">
          <mxGeometry x="1295" y="368" width="30" height="30" as="geometry" />
        </mxCell>
        <mxCell id="58RjTEyZ_wl-csbwNSAx-21" value="1..*" style="text;html=1;align=center;verticalAlign=middle;resizable=0;points=[];autosize=1;strokeColor=none;fillColor=none;" vertex="1" parent="1">
          <mxGeometry x="1200" y="428" width="40" height="30" as="geometry" />
        </mxCell>
        <mxCell id="58RjTEyZ_wl-csbwNSAx-22" value="- paga" style="text;html=1;align=center;verticalAlign=middle;resizable=0;points=[];autosize=1;strokeColor=none;fillColor=none;" vertex="1" parent="1">
          <mxGeometry x="830" y="468" width="60" height="30" as="geometry" />
        </mxCell>
        <mxCell id="58RjTEyZ_wl-csbwNSAx-23" value="1..*" style="text;html=1;align=center;verticalAlign=middle;resizable=0;points=[];autosize=1;strokeColor=none;fillColor=none;" vertex="1" parent="1">
          <mxGeometry x="860" y="498" width="40" height="30" as="geometry" />
        </mxCell>
        <mxCell id="58RjTEyZ_wl-csbwNSAx-24" value="1" style="text;html=1;align=center;verticalAlign=middle;resizable=0;points=[];autosize=1;strokeColor=none;fillColor=none;" vertex="1" parent="1">
          <mxGeometry x="1130" y="320" width="30" height="30" as="geometry" />
        </mxCell>
        <mxCell id="58RjTEyZ_wl-csbwNSAx-27" value="1..*" style="text;html=1;align=center;verticalAlign=middle;resizable=0;points=[];autosize=1;strokeColor=none;fillColor=none;" vertex="1" parent="1">
          <mxGeometry x="870" y="668" width="40" height="30" as="geometry" />
        </mxCell>
        <mxCell id="58RjTEyZ_wl-csbwNSAx-28" value="1" style="text;html=1;align=center;verticalAlign=middle;resizable=0;points=[];autosize=1;strokeColor=none;fillColor=none;" vertex="1" parent="1">
          <mxGeometry x="1165" y="358" width="30" height="30" as="geometry" />
        </mxCell>
        <mxCell id="58RjTEyZ_wl-csbwNSAx-29" value="1" style="text;html=1;align=center;verticalAlign=middle;resizable=0;points=[];autosize=1;strokeColor=none;fillColor=none;" vertex="1" parent="1">
          <mxGeometry x="1295" y="228" width="30" height="30" as="geometry" />
        </mxCell>
        <mxCell id="58RjTEyZ_wl-csbwNSAx-30" value="1..*" style="text;html=1;align=center;verticalAlign=middle;resizable=0;points=[];autosize=1;strokeColor=none;fillColor=none;" vertex="1" parent="1">
          <mxGeometry x="875" y="70" width="40" height="30" as="geometry" />
        </mxCell>
        <mxCell id="58RjTEyZ_wl-csbwNSAx-31" value="1..*" style="text;html=1;align=center;verticalAlign=middle;resizable=0;points=[];autosize=1;strokeColor=none;fillColor=none;" vertex="1" parent="1">
          <mxGeometry x="280" y="218" width="40" height="30" as="geometry" />
        </mxCell>
        <mxCell id="58RjTEyZ_wl-csbwNSAx-33" value="1" style="text;html=1;align=center;verticalAlign=middle;resizable=0;points=[];autosize=1;strokeColor=none;fillColor=none;" vertex="1" parent="1">
          <mxGeometry x="640" y="660" width="30" height="30" as="geometry" />
        </mxCell>
        <mxCell id="-fovseGdwiR-pLgsFb7E-1" value="1..*" style="text;html=1;align=center;verticalAlign=middle;resizable=0;points=[];autosize=1;strokeColor=none;fillColor=none;" vertex="1" parent="1">
          <mxGeometry x="420" y="158" width="40" height="30" as="geometry" />
        </mxCell>
        <mxCell id="-fovseGdwiR-pLgsFb7E-2" value="1" style="text;html=1;align=center;verticalAlign=middle;resizable=0;points=[];autosize=1;strokeColor=none;fillColor=none;" vertex="1" parent="1">
          <mxGeometry x="645" y="188" width="30" height="30" as="geometry" />
        </mxCell>
      </root>
    </mxGraphModel>
  </diagram>
  <diagram id="hERLrBfv698QV9lLtI2y" name="class ottimizzato">
    <mxGraphModel grid="1" page="1" gridSize="10" guides="1" tooltips="1" connect="1" arrows="1" fold="1" pageScale="1" pageWidth="850" pageHeight="1100" math="0" shadow="0">
      <root>
        <mxCell id="0" />
        <mxCell id="1" parent="0" />
        <mxCell id="EkndR-XwW3RdN59gAqya-1" value="persone" style="swimlane;fontStyle=1;align=center;verticalAlign=top;childLayout=stackLayout;horizontal=1;startSize=26;horizontalStack=0;resizeParent=1;resizeParentMax=0;resizeLast=0;collapsible=1;marginBottom=0;whiteSpace=wrap;html=1;" vertex="1" parent="1">
          <mxGeometry x="-80" y="310" width="160" height="78" as="geometry" />
        </mxCell>
        <mxCell id="EkndR-XwW3RdN59gAqya-2" value="- nome: String&lt;div&gt;- cognome: String&lt;/div&gt;" style="text;strokeColor=none;fillColor=none;align=left;verticalAlign=top;spacingLeft=4;spacingRight=4;overflow=hidden;rotatable=0;points=[[0,0.5],[1,0.5]];portConstraint=eastwest;whiteSpace=wrap;html=1;" vertex="1" parent="EkndR-XwW3RdN59gAqya-1">
          <mxGeometry y="26" width="160" height="44" as="geometry" />
        </mxCell>
        <mxCell id="EkndR-XwW3RdN59gAqya-3" value="" style="line;strokeWidth=1;fillColor=none;align=left;verticalAlign=middle;spacingTop=-1;spacingLeft=3;spacingRight=3;rotatable=0;labelPosition=right;points=[];portConstraint=eastwest;strokeColor=inherit;" vertex="1" parent="EkndR-XwW3RdN59gAqya-1">
          <mxGeometry y="70" width="160" height="8" as="geometry" />
        </mxCell>
        <mxCell id="EkndR-XwW3RdN59gAqya-4" value="" style="edgeStyle=none;html=1;endSize=12;endArrow=block;endFill=0;rounded=0;entryX=1;entryY=-0.023;entryDx=0;entryDy=0;entryPerimeter=0;exitX=0;exitY=0.5;exitDx=0;exitDy=0;" edge="1" parent="1" source="bccLT2h84_3Jy_lrGgbS-7" target="EkndR-XwW3RdN59gAqya-2">
          <mxGeometry width="160" relative="1" as="geometry">
            <mxPoint x="260" y="220" as="sourcePoint" />
            <mxPoint x="650" y="380" as="targetPoint" />
          </mxGeometry>
        </mxCell>
        <mxCell id="EkndR-XwW3RdN59gAqya-7" value="dirigente" style="swimlane;fontStyle=1;align=center;verticalAlign=top;childLayout=stackLayout;horizontal=1;startSize=34;horizontalStack=0;resizeParent=1;resizeParentMax=0;resizeLast=0;collapsible=1;marginBottom=0;whiteSpace=wrap;html=1;" vertex="1" parent="1">
          <mxGeometry x="210" y="590" width="210" height="118" as="geometry" />
        </mxCell>
        <mxCell id="bccLT2h84_3Jy_lrGgbS-12" value="- reparto: string" style="text;html=1;align=center;verticalAlign=middle;resizable=0;points=[];autosize=1;strokeColor=none;fillColor=none;" vertex="1" parent="EkndR-XwW3RdN59gAqya-7">
          <mxGeometry y="34" width="210" height="30" as="geometry" />
        </mxCell>
        <mxCell id="EkndR-XwW3RdN59gAqya-8" value="" style="line;strokeWidth=1;fillColor=none;align=left;verticalAlign=middle;spacingTop=-1;spacingLeft=3;spacingRight=3;rotatable=0;labelPosition=right;points=[];portConstraint=eastwest;strokeColor=inherit;" vertex="1" parent="EkndR-XwW3RdN59gAqya-7">
          <mxGeometry y="64" width="210" height="14" as="geometry" />
        </mxCell>
        <mxCell id="bccLT2h84_3Jy_lrGgbS-14" value="+ get_stipendioBase(): double&amp;nbsp;&lt;div&gt;+ get_indennitàQualifica(): double&lt;/div&gt;" style="text;html=1;align=center;verticalAlign=middle;resizable=0;points=[];autosize=1;strokeColor=none;fillColor=none;" vertex="1" parent="EkndR-XwW3RdN59gAqya-7">
          <mxGeometry y="78" width="210" height="40" as="geometry" />
        </mxCell>
        <mxCell id="EkndR-XwW3RdN59gAqya-9" value="impresa" style="swimlane;fontStyle=1;align=center;verticalAlign=top;childLayout=stackLayout;horizontal=1;startSize=26;horizontalStack=0;resizeParent=1;resizeParentMax=0;resizeLast=0;collapsible=1;marginBottom=0;whiteSpace=wrap;html=1;" vertex="1" parent="1">
          <mxGeometry x="940" y="160" width="200" height="110" as="geometry" />
        </mxCell>
        <mxCell id="EkndR-XwW3RdN59gAqya-10" value="- nomeAzienda: String" style="text;strokeColor=none;fillColor=none;align=left;verticalAlign=top;spacingLeft=4;spacingRight=4;overflow=hidden;rotatable=0;points=[[0,0.5],[1,0.5]];portConstraint=eastwest;whiteSpace=wrap;html=1;" vertex="1" parent="EkndR-XwW3RdN59gAqya-9">
          <mxGeometry y="26" width="200" height="26" as="geometry" />
        </mxCell>
        <mxCell id="EkndR-XwW3RdN59gAqya-11" value="" style="line;strokeWidth=1;fillColor=none;align=left;verticalAlign=middle;spacingTop=-1;spacingLeft=3;spacingRight=3;rotatable=0;labelPosition=right;points=[];portConstraint=eastwest;strokeColor=inherit;" vertex="1" parent="EkndR-XwW3RdN59gAqya-9">
          <mxGeometry y="52" width="200" height="58" as="geometry" />
        </mxCell>
        <mxCell id="EkndR-XwW3RdN59gAqya-13" value="" style="edgeStyle=none;html=1;endSize=12;endArrow=block;endFill=0;rounded=0;entryX=1;entryY=0.773;entryDx=0;entryDy=0;entryPerimeter=0;exitX=0;exitY=0.5;exitDx=0;exitDy=0;" edge="1" parent="1" source="EkndR-XwW3RdN59gAqya-7" target="EkndR-XwW3RdN59gAqya-2">
          <mxGeometry width="160" relative="1" as="geometry">
            <mxPoint x="240" y="400.0039999999999" as="sourcePoint" />
            <mxPoint x="93" y="344" as="targetPoint" />
          </mxGeometry>
        </mxCell>
        <mxCell id="EkndR-XwW3RdN59gAqya-16" value="full-time" style="swimlane;fontStyle=1;align=center;verticalAlign=top;childLayout=stackLayout;horizontal=1;startSize=26;horizontalStack=0;resizeParent=1;resizeParentMax=0;resizeLast=0;collapsible=1;marginBottom=0;whiteSpace=wrap;html=1;" vertex="1" parent="1">
          <mxGeometry x="290" y="410" width="200" height="140" as="geometry" />
        </mxCell>
        <mxCell id="bccLT2h84_3Jy_lrGgbS-10" value="- Ore_extra : double;" style="text;html=1;align=center;verticalAlign=middle;resizable=0;points=[];autosize=1;strokeColor=none;fillColor=none;" vertex="1" parent="EkndR-XwW3RdN59gAqya-16">
          <mxGeometry y="26" width="200" height="30" as="geometry" />
        </mxCell>
        <mxCell id="EkndR-XwW3RdN59gAqya-18" value="" style="line;strokeWidth=1;fillColor=none;align=left;verticalAlign=middle;spacingTop=-1;spacingLeft=3;spacingRight=3;rotatable=0;labelPosition=right;points=[];portConstraint=eastwest;strokeColor=inherit;" vertex="1" parent="EkndR-XwW3RdN59gAqya-16">
          <mxGeometry y="56" width="200" height="4" as="geometry" />
        </mxCell>
        <mxCell id="EkndR-XwW3RdN59gAqya-19" value="+ get_PagaStraordinari() : double;&lt;div&gt;+ aggiorna_oreExtra(): string;&lt;/div&gt;&lt;div&gt;+get_ oreExtraMensili(): double&lt;/div&gt;" style="text;strokeColor=none;fillColor=none;align=left;verticalAlign=top;spacingLeft=4;spacingRight=4;overflow=hidden;rotatable=0;points=[[0,0.5],[1,0.5]];portConstraint=eastwest;whiteSpace=wrap;html=1;" vertex="1" parent="EkndR-XwW3RdN59gAqya-16">
          <mxGeometry y="60" width="200" height="80" as="geometry" />
        </mxCell>
        <mxCell id="EkndR-XwW3RdN59gAqya-20" value="part-time" style="swimlane;fontStyle=1;align=center;verticalAlign=top;childLayout=stackLayout;horizontal=1;startSize=26;horizontalStack=0;resizeParent=1;resizeParentMax=0;resizeLast=0;collapsible=1;marginBottom=0;whiteSpace=wrap;html=1;" vertex="1" parent="1">
          <mxGeometry x="550" y="410" width="160" height="34" as="geometry" />
        </mxCell>
        <mxCell id="EkndR-XwW3RdN59gAqya-22" value="" style="line;strokeWidth=1;fillColor=none;align=left;verticalAlign=middle;spacingTop=-1;spacingLeft=3;spacingRight=3;rotatable=0;labelPosition=right;points=[];portConstraint=eastwest;strokeColor=inherit;" vertex="1" parent="EkndR-XwW3RdN59gAqya-20">
          <mxGeometry y="26" width="160" height="8" as="geometry" />
        </mxCell>
        <mxCell id="EkndR-XwW3RdN59gAqya-40" value="" style="endArrow=none;startArrow=diamondThin;endFill=0;startFill=0;html=1;verticalAlign=bottom;labelBackgroundColor=none;strokeWidth=1;startSize=8;endSize=8;rounded=0;" edge="1" parent="1">
          <mxGeometry width="160" relative="1" as="geometry">
            <mxPoint x="160" y="30" as="sourcePoint" />
            <mxPoint x="320" y="30" as="targetPoint" />
          </mxGeometry>
        </mxCell>
        <mxCell id="EkndR-XwW3RdN59gAqya-41" value="" style="endArrow=none;startArrow=diamondThin;endFill=0;startFill=1;html=1;verticalAlign=bottom;labelBackgroundColor=none;strokeWidth=1;startSize=8;endSize=8;rounded=0;" edge="1" parent="1">
          <mxGeometry width="160" relative="1" as="geometry">
            <mxPoint x="160" y="60" as="sourcePoint" />
            <mxPoint x="320" y="60" as="targetPoint" />
          </mxGeometry>
        </mxCell>
        <mxCell id="EkndR-XwW3RdN59gAqya-42" value="" style="endArrow=none;html=1;endSize=12;startArrow=none;startSize=14;startFill=0;edgeStyle=orthogonalEdgeStyle;align=center;verticalAlign=bottom;endFill=0;rounded=0;" edge="1" parent="1">
          <mxGeometry y="3" relative="1" as="geometry">
            <mxPoint x="160" y="80" as="sourcePoint" />
            <mxPoint x="320" y="80" as="targetPoint" />
          </mxGeometry>
        </mxCell>
        <mxCell id="EkndR-XwW3RdN59gAqya-45" value="" style="edgeStyle=none;html=1;endSize=12;endArrow=block;endFill=0;rounded=0;exitX=0.5;exitY=0;exitDx=0;exitDy=0;entryX=0.248;entryY=1.014;entryDx=0;entryDy=0;entryPerimeter=0;" edge="1" parent="1" source="EkndR-XwW3RdN59gAqya-16" target="bccLT2h84_3Jy_lrGgbS-9">
          <mxGeometry width="160" relative="1" as="geometry">
            <mxPoint x="280" y="240" as="sourcePoint" />
            <mxPoint x="460" y="360" as="targetPoint" />
          </mxGeometry>
        </mxCell>
        <mxCell id="EkndR-XwW3RdN59gAqya-46" value="" style="edgeStyle=none;html=1;endSize=12;endArrow=block;endFill=0;rounded=0;exitX=0.25;exitY=0;exitDx=0;exitDy=0;entryX=0.723;entryY=1.041;entryDx=0;entryDy=0;entryPerimeter=0;" edge="1" parent="1" source="EkndR-XwW3RdN59gAqya-20" target="bccLT2h84_3Jy_lrGgbS-9">
          <mxGeometry width="160" relative="1" as="geometry">
            <mxPoint x="700" y="300" as="sourcePoint" />
            <mxPoint x="383.3600000000001" y="252.24400000000003" as="targetPoint" />
          </mxGeometry>
        </mxCell>
        <mxCell id="bccLT2h84_3Jy_lrGgbS-1" value="Livello contrattuale&lt;div&gt;&amp;lt;&amp;lt;enum&amp;gt;&amp;gt;&lt;/div&gt;" style="swimlane;fontStyle=1;align=center;verticalAlign=top;childLayout=stackLayout;horizontal=1;startSize=40;horizontalStack=0;resizeParent=1;resizeParentMax=0;resizeLast=0;collapsible=1;marginBottom=0;whiteSpace=wrap;html=1;" vertex="1" parent="1">
          <mxGeometry x="-50" y="120" width="160" height="108" as="geometry" />
        </mxCell>
        <mxCell id="bccLT2h84_3Jy_lrGgbS-2" value="- base&lt;div&gt;- medio&lt;/div&gt;&lt;div&gt;- alto&lt;/div&gt;" style="text;strokeColor=none;fillColor=none;align=left;verticalAlign=top;spacingLeft=4;spacingRight=4;overflow=hidden;rotatable=0;points=[[0,0.5],[1,0.5]];portConstraint=eastwest;whiteSpace=wrap;html=1;" vertex="1" parent="bccLT2h84_3Jy_lrGgbS-1">
          <mxGeometry y="40" width="160" height="60" as="geometry" />
        </mxCell>
        <mxCell id="bccLT2h84_3Jy_lrGgbS-3" value="" style="line;strokeWidth=1;fillColor=none;align=left;verticalAlign=middle;spacingTop=-1;spacingLeft=3;spacingRight=3;rotatable=0;labelPosition=right;points=[];portConstraint=eastwest;strokeColor=inherit;" vertex="1" parent="bccLT2h84_3Jy_lrGgbS-1">
          <mxGeometry y="100" width="160" height="8" as="geometry" />
        </mxCell>
        <mxCell id="bccLT2h84_3Jy_lrGgbS-4" value="" style="endArrow=none;startArrow=diamondThin;endFill=0;startFill=0;html=1;verticalAlign=bottom;labelBackgroundColor=none;strokeWidth=1;startSize=8;endSize=8;rounded=0;entryX=1.014;entryY=0.007;entryDx=0;entryDy=0;entryPerimeter=0;exitX=-0.016;exitY=0.117;exitDx=0;exitDy=0;exitPerimeter=0;" edge="1" parent="1" source="bccLT2h84_3Jy_lrGgbS-6" target="bccLT2h84_3Jy_lrGgbS-2">
          <mxGeometry width="160" relative="1" as="geometry">
            <mxPoint x="260" y="205" as="sourcePoint" />
            <mxPoint x="330" y="40" as="targetPoint" />
          </mxGeometry>
        </mxCell>
        <mxCell id="bccLT2h84_3Jy_lrGgbS-6" value="impiegato &amp;lt;Persona&amp;gt;&lt;div&gt;&amp;lt;&amp;lt;abstract&amp;gt;&amp;gt;&lt;/div&gt;" style="swimlane;fontStyle=1;align=center;verticalAlign=top;childLayout=stackLayout;horizontal=1;startSize=40;horizontalStack=0;resizeParent=1;resizeParentMax=0;resizeLast=0;collapsible=1;marginBottom=0;whiteSpace=wrap;html=1;" vertex="1" parent="1">
          <mxGeometry x="410" y="180" width="250" height="190" as="geometry" />
        </mxCell>
        <mxCell id="bccLT2h84_3Jy_lrGgbS-7" value="- ID_personale: string" style="text;strokeColor=none;fillColor=none;align=left;verticalAlign=top;spacingLeft=4;spacingRight=4;overflow=hidden;rotatable=0;points=[[0,0.5],[1,0.5]];portConstraint=eastwest;whiteSpace=wrap;html=1;" vertex="1" parent="bccLT2h84_3Jy_lrGgbS-6">
          <mxGeometry y="40" width="250" height="26" as="geometry" />
        </mxCell>
        <mxCell id="bccLT2h84_3Jy_lrGgbS-8" value="" style="line;strokeWidth=1;fillColor=none;align=left;verticalAlign=middle;spacingTop=-1;spacingLeft=3;spacingRight=3;rotatable=0;labelPosition=right;points=[];portConstraint=eastwest;strokeColor=inherit;" vertex="1" parent="bccLT2h84_3Jy_lrGgbS-6">
          <mxGeometry y="66" width="250" height="8" as="geometry" />
        </mxCell>
        <mxCell id="bccLT2h84_3Jy_lrGgbS-9" value="+ get_stipendioBase() : double&lt;div&gt;+ get_quotaProporzionale(): double&lt;/div&gt;&lt;div&gt;+ incrementa_Paga() : double&lt;/div&gt;&lt;div&gt;+ promozione_livello() : Livello contrattuale&lt;/div&gt;&lt;div&gt;+&amp;nbsp; crea_Lavoratore(): Persona&lt;/div&gt;&lt;div&gt;+ creaCopia(): Persona&lt;/div&gt;&lt;div&gt;+ calcola_TotaleStipendi(): double&lt;/div&gt;" style="text;strokeColor=none;fillColor=none;align=left;verticalAlign=top;spacingLeft=4;spacingRight=4;overflow=hidden;rotatable=0;points=[[0,0.5],[1,0.5]];portConstraint=eastwest;whiteSpace=wrap;html=1;" vertex="1" parent="bccLT2h84_3Jy_lrGgbS-6">
          <mxGeometry y="74" width="250" height="116" as="geometry" />
        </mxCell>
        <mxCell id="bccLT2h84_3Jy_lrGgbS-17" value="" style="endArrow=none;startArrow=diamondThin;endFill=0;startFill=1;html=1;verticalAlign=bottom;labelBackgroundColor=none;strokeWidth=1;startSize=8;endSize=8;rounded=0;entryX=0.991;entryY=-0.01;entryDx=0;entryDy=0;entryPerimeter=0;exitX=0;exitY=0.5;exitDx=0;exitDy=0;" edge="1" parent="1" source="EkndR-XwW3RdN59gAqya-10" target="bccLT2h84_3Jy_lrGgbS-9">
          <mxGeometry width="160" relative="1" as="geometry">
            <mxPoint x="170" y="70" as="sourcePoint" />
            <mxPoint x="330" y="70" as="targetPoint" />
          </mxGeometry>
        </mxCell>
        <mxCell id="bccLT2h84_3Jy_lrGgbS-18" value="" style="endArrow=none;startArrow=diamondThin;endFill=0;startFill=1;html=1;verticalAlign=bottom;labelBackgroundColor=none;strokeWidth=1;startSize=8;endSize=8;rounded=0;entryX=1;entryY=0.25;entryDx=0;entryDy=0;exitX=-0.016;exitY=0.105;exitDx=0;exitDy=0;exitPerimeter=0;" edge="1" parent="1" source="EkndR-XwW3RdN59gAqya-9" target="bccLT2h84_3Jy_lrGgbS-1">
          <mxGeometry width="160" relative="1" as="geometry">
            <mxPoint x="170" y="70" as="sourcePoint" />
            <mxPoint x="330" y="70" as="targetPoint" />
          </mxGeometry>
        </mxCell>
        <mxCell id="bccLT2h84_3Jy_lrGgbS-19" value="" style="endArrow=none;startArrow=diamondThin;endFill=0;startFill=1;html=1;verticalAlign=bottom;labelBackgroundColor=none;strokeWidth=1;startSize=8;endSize=8;rounded=0;entryX=1;entryY=1.147;entryDx=0;entryDy=0;entryPerimeter=0;exitX=0.5;exitY=1;exitDx=0;exitDy=0;" edge="1" parent="1" source="EkndR-XwW3RdN59gAqya-9" target="bccLT2h84_3Jy_lrGgbS-12">
          <mxGeometry width="160" relative="1" as="geometry">
            <mxPoint x="1063.8000000000002" y="303.1600000000001" as="sourcePoint" />
            <mxPoint x="340" y="80" as="targetPoint" />
            <Array as="points">
              <mxPoint x="1040" y="650" />
            </Array>
          </mxGeometry>
        </mxCell>
      </root>
    </mxGraphModel>
  </diagram>
</mxfile>
